<?xml version="1.0" encoding="UTF-8" standalone="no"?>
<svg id="Layer_1" data-name="Layer 1" xmlns="http://www.w3.org/2000/svg" viewBox="0 0 120 120">
    <defs>
        <style>.cls-1{fill:#fff;}.cls-2{fill:#e2e2e2;}.cls-3{fill:#d81616;}.cls-4{fill:#b51616;}.cls-5{fill:#1e0505;}
        </style>
    </defs>
    <title>Santa sock icon</title>
    <rect class="cls-1" x="49.57" y="24.92" width="49.39" height="13.72" rx="5.03"/>
    <path class="cls-2" d="M93.93,24.92H81.24V38.64H93.93a5,5,0,0,0,5-5V30A5,5,0,0,0,93.93,24.92Z"/>
    <path class="cls-3"
          d="M54.21,38.29V60.45a5.83,5.83,0,0,1-3.14,5.18L38.21,72.26C31.29,75.92,25.4,82.58,25.4,91.15a20.35,20.35,0,0,0,20.35,20.36,25.17,25.17,0,0,0,11-3.26L88.48,91.74s6.17-3,6.17-9V38.29Z"/>
    <path class="cls-4"
          d="M81.24,38.29V72.06c0,6-6.17,9-6.17,9L43.36,97.55a25.17,25.17,0,0,1-11,3.26,20.47,20.47,0,0,1-4.79-.59,20.31,20.31,0,0,0,18.2,11.29,25.17,25.17,0,0,0,11-3.26L88.48,91.74s6.17-3,6.17-9V38.29Z"/>
    <path class="cls-2"
          d="M93.47,75.81a10.36,10.36,0,0,0-7.68,17.33l2.69-1.4s6.17-3,6.17-9V75.88A11.5,11.5,0,0,0,93.47,75.81Z"/>
    <path class="cls-1"
          d="M50.22,110.85A22,22,0,0,0,31.57,77.13a19.72,19.72,0,0,0-6.17,14,20.35,20.35,0,0,0,20.35,20.36A19,19,0,0,0,50.22,110.85Z"/>
    <path class="cls-2"
          d="M32.34,100.81a20.47,20.47,0,0,1-4.79-.59,20.45,20.45,0,0,0,3,4.48l.2.22a19.54,19.54,0,0,0,2.65,2.41l.51.39c.26.18.52.36.79.53s.51.32.77.48l.93.51c.37.19.75.38,1.13.55l.63.26,1.13.41.53.18c.55.16,1.11.31,1.67.43l.43.07c.47.09.94.16,1.42.22l.52.06c.61,0,1.23.09,1.85.09h0a10.56,10.56,0,0,0,1.1-.06c.2,0,.42,0,.63-.07l.5-.07c.3,0,.6-.1.91-.16l.22-.05c.36-.07.73-.16,1.1-.25a22,22,0,0,0,2.39-18.11l-9.25,4.81A25.17,25.17,0,0,1,32.34,100.81Z"/>
    <path class="cls-5"
          d="M97.81,24.1c1.11-2.08,2.42-5.37,1.47-8.1a5.66,5.66,0,0,0-4.07-3.58,6.44,6.44,0,0,0-6.15.95c-2.9,2.32-3.38,7.08-3.43,9.55h-31a7.05,7.05,0,0,0-7,7V33.6a7.05,7.05,0,0,0,4.64,6.61V60.45a3.78,3.78,0,0,1-2.06,3.4L37.27,70.49a30,30,0,0,0-6.52,4.64h0l-.09.09a25.07,25.07,0,0,0-3.39,4l0,0q-.59.84-1.08,1.71l-.27.52c-.2.37-.39.74-.56,1.12s-.23.51-.34.77-.26.67-.38,1-.24.68-.34,1-.26.9-.36,1.35c-.06.24-.1.49-.14.74s-.14.79-.19,1.19c0,.22-.06.43-.08.65q-.09.93-.09,1.86a22.38,22.38,0,0,0,22.35,22.36c.39,0,.8,0,1.22-.06l.65-.07.62-.08.92-.17.36-.07c.38-.08.75-.16,1.14-.26h.05l.78-.2h0a28.52,28.52,0,0,0,6.2-2.55L85.34,95.62h0l4-2.09c.3-.14,7.29-3.66,7.29-10.77V40.09A7,7,0,0,0,101,33.6V30A7,7,0,0,0,97.81,24.1Zm-6.25-7.61a2.56,2.56,0,0,1,2.54-.23c1.15.34,1.34.86,1.41,1.06.46,1.33-.56,3.82-1.63,5.6H89.63C89.68,20.63,90.18,17.59,91.56,16.49ZM48.93,109.1c-.52.12-1,.2-1.48.27l-.33,0-.46,0c-.31,0-.62.05-.91.05A18.37,18.37,0,0,1,27.4,91.15c0-.39,0-.79,0-1.18l0-.24c0-.35.07-.71.12-1.06,0,0,0-.06,0-.09a16.9,16.9,0,0,1,1.54-4.78l.05-.09c.18-.35.36-.7.56-1l.19-.3.35-.55a21.4,21.4,0,0,1,2.1-2.67A20,20,0,0,1,48.93,109.1ZM92.65,82.76c0,4.6-5,7.16-5.09,7.2l-1.2.63a8.35,8.35,0,0,1,6.29-12.74Zm0-8.91a12.33,12.33,0,0,0-9.84,18.59l-27,14.08c-.52.29-1.08.57-1.65.83A24,24,0,0,0,36.46,75.64,28,28,0,0,1,39.12,74l12.78-6.6a7.74,7.74,0,0,0,4.31-7V40.64H92.65ZM97,33.6a3,3,0,0,1-3,3H54.61a3,3,0,0,1-3-3V30a3,3,0,0,1,3-3H93.93a3,3,0,0,1,3,3Z"/>
</svg>