<?xml version="1.0" encoding="iso-8859-1"?>
<!-- Generator: Adobe Illustrator 19.0.0, SVG Export Plug-In . SVG Version: 6.00 Build 0)  -->
<svg version="1.1" id="Capa_1" xmlns="http://www.w3.org/2000/svg" xmlns:xlink="http://www.w3.org/1999/xlink" x="0px" y="0px"
	 viewBox="0 0 479.874 479.874" style="enable-background:new 0 0 479.874 479.874;" xml:space="preserve">
<g>
	<g>
		<path d="M412.374,190.705L412.374,190.705c-7.262-5.715-16.761-7.745-25.725-5.5l-48.086,11.906
			c40.859-54.354,29.919-131.539-24.434-172.398C259.775-16.146,182.59-5.206,141.731,49.147
			c-12.583,16.739-20.689,36.412-23.551,57.157c-2.936,21.984,0.009,44.353,8.536,64.828l-50.217,16.734
			c-12.268,4.069-20.552,15.535-20.562,28.46v212.666c0.06,16.542,13.44,29.944,29.981,30.033c3.264-0.005,6.505-0.536,9.6-1.572
			l88.2-29.4l114.139,50.952c1.993,0.906,4.234,1.111,6.359,0.581l0.006,0.023l96.521-22.649
			c13.592-3.139,23.213-15.252,23.194-29.202V214.334C423.946,205.093,419.676,196.368,412.374,190.705z M173.937,410.127
			l-84.888,28.352c-5.218,1.741-10.859-1.078-12.6-6.296c-0.343-1.029-0.516-2.107-0.512-3.191V216.326
			c0.018-4.314,2.791-8.134,6.888-9.487l53.212-17.734c4.772,7.762,10.408,14.958,16.8,21.452l21.1,21.24V410.127z M291.937,454.463
			l-98-43.614V251.805l38.776,38.624c3.95,3.905,10.307,3.905,14.257,0l44.967-44.934V454.463z M239.937,269.211l-72.793-72.794
			c-7.007-7.127-12.977-15.204-17.735-23.993c-10.344-19.422-14.336-41.599-11.413-63.408
			c7.807-56.442,59.891-95.868,116.333-88.061c51.027,7.058,89.029,50.673,89.034,102.186
			c-0.049,27.529-11.075,53.902-30.633,73.276L239.937,269.211z M403.937,427.758c-0.008,4.657-3.227,8.693-7.765,9.736
			l-84.235,19.764V225.494l1.569-1.569l77.925-19.3c5.405-1.339,10.872,1.957,12.211,7.362c0.19,0.768,0.289,1.556,0.296,2.347
			V427.758z"/>
	</g>
</g>
<g>
	<g>
		<path d="M239.937,50.242c-37.942,0-68.7,30.758-68.7,68.7c0.041,37.925,30.775,68.659,68.7,68.7c37.942,0,68.7-30.758,68.7-68.7
			S277.879,50.242,239.937,50.242z M239.937,167.65c-26.896,0-48.7-21.804-48.7-48.7c0.028-26.885,21.815-48.672,48.7-48.7
			c26.896,0,48.7,21.804,48.7,48.7C288.637,145.846,266.833,167.65,239.937,167.65z"/>
	</g>
</g>
<g>
</g>
<g>
</g>
<g>
</g>
<g>
</g>
<g>
</g>
<g>
</g>
<g>
</g>
<g>
</g>
<g>
</g>
<g>
</g>
<g>
</g>
<g>
</g>
<g>
</g>
<g>
</g>
<g>
</g>
</svg>
