<svg height="512pt" viewBox="0 -87 512 512" width="512pt" xmlns="http://www.w3.org/2000/svg"><path d="m263.835938 110.980469c0-19.042969-15.492188-34.539063-34.535157-34.539063-19.046875 0-34.539062 15.496094-34.539062 34.539063s15.492187 34.539062 34.539062 34.539062c19.042969 0 34.535157-15.496093 34.535157-34.539062zm-54.078126 0c0-10.773438 8.765626-19.539063 19.542969-19.539063 10.773438 0 19.539063 8.765625 19.539063 19.539063 0 10.773437-8.765625 19.539062-19.539063 19.539062-10.777343 0-19.542969-8.765625-19.542969-19.539062zm0 0"/><path d="m512 7.5c0-2.457031-1.203125-4.757812-3.21875-6.15625-2.019531-1.4023438-4.59375-1.730469-6.894531-.871094-57.046875 21.21875-148.964844 33.890625-245.882813 33.890625-44.175781 0-86.777344-2.511719-126.617187-7.460937-4.117188-.515625-7.855469 2.410156-8.367188 6.519531s2.40625 7.855469 6.519531 8.367187c40.453126 5.023438 83.671876 7.570313 128.464844 7.570313 94.570313 0 181.503906-11.335937 240.996094-31.261719v292.539063l-56.964844-62.261719c-2.792968-3.058594-7.539062-3.265625-10.59375-.472656-3.054687 2.796875-3.265625 7.539062-.472656 10.59375l50.8125 55.535156c-58.441406-16.613281-137.964844-25.949219-223.777344-25.949219-86.296875 0-166.222656 9.445313-224.757812 26.238281l38.511718-43.742187c2.734376-3.109375 2.433594-7.847656-.675781-10.585937-3.109375-2.734376-7.847656-2.433594-10.582031.671874l-43.5 49.414063v-291.984375c23.191406 7.753906 50.84375 14.265625 82.398438 19.390625 4.085937.667969 7.9375-2.109375 8.601562-6.199219s-2.109375-7.941406-6.199219-8.601562c-35.3125-5.738282-65.488281-13.210938-89.6875-22.214844-2.300781-.855469-4.875-.53125-6.894531.871094-2.015625 1.402344-3.21875 3.703125-3.21875 6.160156v322.445312c0 .058594.0078125.113282.0117188.167969.0039062.195313.015625.390625.0351562.582031.0078125.09375.015625.1875.03125.277344.027344.214844.070313.425782.117187.636719.011719.054687.023438.117187.035157.171875.070312.273438.152343.542969.25.804688.011719.03125.027343.0625.039062.089843.089844.230469.191407.453125.300781.675781.035157.0625.070313.121094.101563.183594.101563.1875.210937.363282.324219.539063.046875.070312.089844.136719.136718.203125.117188.167968.246094.328125.378907.484375.050781.0625.101562.125.15625.1875.152343.171875.316406.335937.488281.496093.039062.035157.074219.070313.113281.105469.007813.007813.015625.019531.023438.023438.203125.179687.417969.34375.636719.5.011718.007812.023437.019531.039062.03125.023438.015625.050781.027343.074219.042969.292969.199218.59375.378906.902343.527343.007813.003907.015626.011719.023438.015625.320312.152344.644531.28125.976562.386719.046876.015625.09375.03125.136719.042969.324219.097656.65625.175781.988281.226562.046876.007813.097657.015625.144532.019532.34375.046874.6875.078124 1.03125.078124h.003906c.238281 0 .480469-.011718.722656-.035156.078125-.007812.152344-.023437.230469-.03125.160156-.023437.324219-.046875.488281-.078125.09375-.019531.191406-.042969.285156-.0625.136719-.035156.277344-.070312.414063-.113281.105469-.03125.210937-.0625.3125-.097656.054687-.019532.109375-.03125.160156-.050782 57.046875-21.222656 148.96875-33.894531 245.890625-33.894531 96.917969 0 188.835938 12.667969 245.882813 33.890625.042969.015625.085937.023438.128906.039063.191406.066406.378906.125.574219.175781.089844.023438.175781.046875.265625.066406.203125.046875.410156.082032.617187.109375.074219.011719.144532.027344.21875.035157.269532.027343.542969.042968.8125.042968h.023438c.035156 0 .070312-.003906.105468-.003906.238282-.003906.476563-.019531.710938-.046875.074219-.007813.152344-.019531.226562-.03125.210938-.03125.417969-.070313.625-.117187.0625-.015626.125-.027344.1875-.042969.53125-.136719 1.054688-.335938 1.554688-.59375.058594-.03125.113281-.0625.167969-.09375.191406-.105469.375-.214844.558593-.339844.039063-.023437.078126-.042969.117188-.070313.027344-.019531.050781-.042968.078125-.0625.179687-.128906.355469-.265624.523437-.414062.046876-.039062.097657-.074219.144532-.117188.011718-.011718.023437-.019531.035156-.03125.199219-.183593.386719-.371093.558594-.570312.027344-.03125.050781-.066406.078125-.097656.15625-.183594.308593-.375.445312-.570313.042969-.0625.078125-.125.121094-.1875.117187-.175781.222656-.351562.324219-.535156.035156-.070313.070312-.140625.109375-.210937.09375-.1875.175781-.375.253906-.570313.027344-.070313.058594-.136719.082031-.207031.085938-.234375.160156-.46875.222656-.710938.007813-.027344.015626-.058594.023438-.085937.066406-.273438.117188-.542969.152344-.820313.011718-.074218.011718-.148437.019531-.226562.023437-.203125.035156-.40625.039063-.609375 0-.046875.007812-.089844.007812-.132813zm0 0"/><path d="m160.5625 159.105469c-7.921875 0-15.507812 3.378906-20.867188 9.328125l-61.25 69.578125c-2.738281 3.105469-2.4375 7.847656.671876 10.582031 3.109374 2.738281 7.847656 2.4375 10.585937-.671875l61.195313-69.515625c2.5-2.773438 5.929687-4.300781 9.664062-4.300781s7.167969 1.527343 9.664062 4.300781l49.914063 55.445312c.007813.007813.011719.011719.019531.019532l31.785156 35.308594c1.480469 1.644531 3.523438 2.480468 5.574219 2.480468 1.789063 0 3.582031-.636718 5.015625-1.925781 3.078125-2.769531 3.328125-7.511719.554688-10.589844l-27.289063-30.3125 71.050781-78.921875c2.945313-3.269531 6.988282-5.066406 11.382813-5.066406 4.398437 0 8.441406 1.796875 11.425781 5.109375l79.050782 86.40625c1.480468 1.617187 3.503906 2.4375 5.535156 2.4375 1.808594 0 3.621094-.648437 5.0625-1.964844 3.054687-2.796875 3.265625-7.539062.46875-10.59375l-79.011719-86.359375c-5.738281-6.378906-13.949219-10.035156-22.527344-10.035156s-16.792969 3.65625-22.53125 10.035156l-69.996093 77.746094-44.335938-49.25c-5.300781-5.890625-12.886719-9.269531-20.8125-9.269531zm0 0"/></svg>