<svg id="Icons" height="512" viewBox="0 0 74 74" width="512" xmlns="http://www.w3.org/2000/svg"><path d="m20.75 59h-8.25a1 1 0 0 1 -1-1v-21.292a1 1 0 0 1 1-1h8.25a1 1 0 0 1 1 1v21.292a1 1 0 0 1 -1 1zm-7.25-2h6.25v-19.292h-6.25z"/><path d="m23.125 37.708h-13a1 1 0 0 1 -1-1v-6a1 1 0 0 1 1-1h13a1 1 0 0 1 1 1v6a1 1 0 0 1 -1 1zm-12-2h11v-4h-11z"/><path d="m23.125 65h-13a1 1 0 0 1 -1-1v-6a1 1 0 0 1 1-1h13a1 1 0 0 1 1 1v6a1 1 0 0 1 -1 1zm-12-2h11v-4h-11z"/><path d="m71 26h-68a1 1 0 0 1 -.543-1.839l34-22a1 1 0 0 1 1.086 0l34 22a1 1 0 0 1 -.543 1.839zm-64.614-2h61.228l-30.614-19.809z"/><path d="m61.5 59h-8.25a1 1 0 0 1 -1-1v-21.292a1 1 0 0 1 1-1h8.25a1 1 0 0 1 1 1v21.292a1 1 0 0 1 -1 1zm-7.25-2h6.25v-19.292h-6.25z"/><path d="m63.875 37.708h-13a1 1 0 0 1 -1-1v-6a1 1 0 0 1 1-1h13a1 1 0 0 1 1 1v6a1 1 0 0 1 -1 1zm-12-2h11v-4h-11z"/><path d="m63.875 65h-13a1 1 0 0 1 -1-1v-6a1 1 0 0 1 1-1h13a1 1 0 0 1 1 1v6a1 1 0 0 1 -1 1zm-12-2h11v-4h-11z"/><path d="m41.125 59h-8.25a1 1 0 0 1 -1-1v-21.292a1 1 0 0 1 1-1h8.25a1 1 0 0 1 1 1v21.292a1 1 0 0 1 -1 1zm-7.25-2h6.25v-19.292h-6.25z"/><path d="m43.5 37.708h-13a1 1 0 0 1 -1-1v-6a1 1 0 0 1 1-1h13a1 1 0 0 1 1 1v6a1 1 0 0 1 -1 1zm-12-2h11v-4h-11z"/><path d="m43.5 65h-13a1 1 0 0 1 -1-1v-6a1 1 0 0 1 1-1h13a1 1 0 0 1 1 1v6a1 1 0 0 1 -1 1zm-12-2h11v-4h-11z"/><path d="m20.5 72h-2.94a1 1 0 0 1 0-2h2.94a1 1 0 0 1 0 2z"/><path d="m70 72h-32.56a1 1 0 0 1 0-2h31.56v-4a1 1 0 0 0 -1-1h-62a1 1 0 0 0 -1 1v4h5.56a1 1 0 1 1 0 2h-6.56a1 1 0 0 1 -1-1v-5a3 3 0 0 1 3-3h62a3 3 0 0 1 3 3v5a1 1 0 0 1 -1 1z"/><path d="m30.44 72h-2.94a1 1 0 0 1 0-2h2.94a1 1 0 0 1 0 2z"/><path d="m37 20.594a5.063 5.063 0 1 1 5.062-5.063 5.068 5.068 0 0 1 -5.062 5.063zm0-8.125a3.063 3.063 0 1 0 3.062 3.062 3.066 3.066 0 0 0 -3.062-3.062z"/><path d="m67 31.708h-60a1 1 0 0 1 -1-1v-5.708a1 1 0 0 1 1-1h60a1 1 0 0 1 1 1v5.708a1 1 0 0 1 -1 1zm-59-2h58v-3.708h-58z"/></svg>